<svg xmlns="http://www.w3.org/2000/svg" width="109" height="82" viewBox="0 0 109 82">
    <g fill="#fff" fill-rule="nonzero">
        <path d="M68.586 1.106L64.858.091c-.48-.16-.952-.11-1.412.15a1.945 1.945 0 0 0-.932 1.164L40.09 78.504c-.16.518-.11 1.006.15 1.463.261.458.652.767 1.173.926l3.727 1.015c.481.16.952.11 1.413-.149.461-.26.772-.647.932-1.163l22.423-77.1a1.78 1.78 0 0 0-.151-1.465 1.949 1.949 0 0 0-1.172-.925zM35 15.907c0-.512-.2-.965-.602-1.36l-3.007-2.955c-.4-.394-.862-.592-1.383-.592s-.983.198-1.383.592L.602 39.14C.2 39.535 0 39.988 0 40.5c0 .512.2.965.602 1.359l28.023 27.549c.4.395.86.591 1.383.591.522 0 .982-.197 1.383-.591l3.007-2.954c.401-.394.602-.848.602-1.36 0-.512-.2-.966-.602-1.36L10.765 40.5l23.633-23.233c.402-.394.602-.847.602-1.36zM108.399 39.14L80.373 11.592c-.4-.394-.862-.592-1.382-.592-.522 0-.982.198-1.384.592L74.6 14.547c-.401.394-.601.847-.601 1.36 0 .513.2.966.6 1.36l23.636 23.234-23.635 23.234c-.401.394-.601.848-.601 1.36 0 .512.2.966.6 1.36l3.007 2.954c.402.395.862.591 1.384.591.52 0 .981-.197 1.382-.591L108.4 41.861c.4-.394.601-.849.601-1.36 0-.513-.2-.967-.601-1.36z"/>
    </g>
</svg>
